<?xml version="1.0" encoding="UTF-8"?><svg id="Camada_1" xmlns="http://www.w3.org/2000/svg" viewBox="0 0 42 46"><defs><style>.cls-1{fill:#fafafa;}</style></defs><path class="cls-1" d="M39.91,10L23.07.54c-1.28-.71-2.86-.71-4.14,0L2.09,10c-1.29.72-2.09,2.08-2.09,3.53v18.93c0,1.45.8,2.81,2.09,3.53l16.84,9.46c.64.36,1.36.54,2.07.54s1.43-.18,2.07-.54l16.84-9.46c1.29-.72,2.09-2.08,2.09-3.53V13.53c0-1.45-.8-2.81-2.09-3.53ZM21,35c-6.62,0-12-5.38-12-12s5.38-12,12-12c3.78,0,7.27,1.75,9.54,4.74l-4.38,2.54c-1.32-1.44-3.19-2.28-5.16-2.28-3.86,0-7,3.14-7,7s3.14,7,7,7c1.97,0,3.84-.84,5.16-2.28l4.38,2.54c-2.27,2.99-5.76,4.74-9.54,4.74ZM33,24h-2v2h-2v-2h-2v-2h2v-2h2v2h2v2ZM40,24h-2v2h-2v-2h-2v-2h2v-2h2v2h2v2Z"/></svg>