<?xml version="1.0" encoding="UTF-8"?><svg id="Camada_1" xmlns="http://www.w3.org/2000/svg" viewBox="0 0 633.34 667.43"><defs><style>.cls-1{fill:#fafafa;}</style></defs><path id="_路径" class="cls-1" d="M143.84,139.96c-8.33-21.26-8-45.56-4.29-67.81,25.27,7.76,49.65,19.63,70.67,35.7,9.29,7.1,21.53,9.43,32.94,5.97,27.65-8.38,58.09-13.06,90.17-13.06s62.46,4.67,90.09,13.03c11.41,3.45,23.64,1.13,32.93-5.97,21.02-16.06,45.39-27.92,70.64-35.68,3.71,22.23,4.04,46.5-4.26,67.74-5,12.8-2.49,27.54,6.93,37.99,24.13,26.78,37.01,57.57,37.01,89.55,0,70.47-65.65,139.56-171.13,160.6-26.41,5.27-36.72,38.48-16.5,57.53,12.95,12.2,20.96,29.4,20.96,48.54v100c0,18.41,14.92,33.33,33.33,33.33s33.33-14.93,33.33-33.33v-100c0-18.99-3.98-37.07-11.14-53.43,100.58-34.91,177.81-113.49,177.81-213.24,0-44.92-16.15-86.18-42.91-120.74,6.99-27.32,6.37-54.88,3.71-76.01-2.38-18.92-5.69-43.73-19.03-58.52-19.82-21.96-52.67-9.04-76-1.05-20.61,7.01-46.11,18.18-70.82,34.83-29.92-7.7-61.86-11.85-94.96-11.85s-65.11,4.15-95.05,11.87c-24.71-16.66-50.21-27.84-70.83-34.85-23.33-7.98-56.2-20.91-76.02,1.05-13.59,15.06-16.45,37.9-18.88,57.28l-.16,1.28c-2.66,21.16-3.27,48.75,3.75,76.09-26.71,34.54-42.81,75.75-42.81,120.61,0,99.75,77.23,178.32,177.81,213.24-7.08,16.17-11.05,34.02-11.14,52.77l-5.59,1.12c-23.89,3.29-39.2.36-49.62-4.06-25.34-10.75-38.38-37.78-54.35-58.44-9.92-12.84-24.37-28.85-46.56-36.24-17.46-5.82-36.34,3.62-42.16,21.08-5.82,17.46,3.62,36.34,21.08,42.16,18.62,6.21,31.48,38.07,43.27,52.22,12.43,14.92,28.97,30.53,52.69,40.6,22.72,9.64,49.4,13.09,81.25,9.19v33.04c0,18.41,14.92,33.33,33.33,33.33s33.33-14.93,33.33-33.33v-100c0-19.13,8.01-36.34,20.96-48.54,20.22-19.05,9.9-52.26-16.5-57.53-105.48-21.04-171.13-90.13-171.13-160.6,0-31.95,12.85-62.71,36.93-89.47,9.42-10.46,11.91-25.21,6.9-38.01Z"/></svg>