<?xml version="1.0" encoding="UTF-8"?><svg id="Camada_1" xmlns="http://www.w3.org/2000/svg" viewBox="0 0 41.07 46"><defs><style>.cls-1{fill:#333;}</style></defs><path class="cls-1" d="M40.81.32c-.19-.21-.46-.32-.74-.32H1C.72,0,.45.12.26.32.07.53-.02.81,0,1.09l3.52,39.43c.04.41.32.76.72.88l16.01,4.57c.09.03.18.04.27.04s.18-.01.27-.04l16.02-4.57c.4-.12.68-.46.72-.88L41.07,1.09c.03-.28-.07-.56-.26-.77ZM32.38,13.92H13.57l.45,5.09h17.91l-1.34,15.04-10.06,3.04-.1-.03-9.94-3.01-.54-6.13h4.87l.21,2.38,5.56,1.16,5.46-1.16.58-6.44H9.58l-1.32-14.8h24.56l-.43,4.86Z"/></svg>