<?xml version="1.0" encoding="UTF-8"?><svg id="Camada_1" xmlns="http://www.w3.org/2000/svg" viewBox="0 0 36 36"><defs><style>.cls-1{fill:#fafafa;}</style></defs><path class="cls-1" d="M0,34.99V1.01C0,.45.45,0,1,0h34c.55,0,1,.45,1,1.01v33.97c0,.56-.45,1.01-1,1.01H1c-.55,0-1-.46-1-1.02ZM34,28.96c0-3.01-1.71-4.37-4.75-5.68l-.89-.37c-1.53-.69-2.19-1.12-2.19-2.21,0-.88.66-1.55,1.71-1.55s1.69.45,2.3,1.55l2.78-1.81c-1.17-2.08-2.8-2.88-5.07-2.88-3.19,0-5.22,2.05-5.22,4.77,0,2.93,1.71,4.35,4.29,5.44l.89.4c1.63.72,2.43,1.15,2.43,2.4,0,.88-1.06,1.36-2.26,1.36-1.76,0-2.59-.8-3.35-2.05l-2.81,1.89c1.05,2.08,2.93,3.79,6.24,3.79s5.91-1.79,5.91-5.04ZM20,28.32v-12.32h-4v11.73c0,1.87-.62,2.4-1.84,2.4s-2.16-.77-2.74-1.81l-3.02,1.81c.87,1.87,3.02,3.84,5.98,3.84,3.29,0,5.62-1.82,5.62-5.66Z"/></svg>