<?xml version="1.0" encoding="UTF-8"?><svg id="Capa_1" xmlns="http://www.w3.org/2000/svg" viewBox="0 0 800 782.89"><defs><style>.cls-1{fill:#fafafa;}</style></defs><path class="cls-1" d="M93.86,0C39.48,0,0,37.51,0,89.16s38.7,89.11,91.98,89.11c27.64,0,51.45-8.96,68.88-25.92,16.71-16.28,25.92-38.71,25.9-63.59C185.54,36.5,147.33,0,93.86,0ZM136.59,127.4c-10.79,10.5-26.23,16.05-44.61,16.05-33.65,0-57.16-22.32-57.16-54.29s23.73-54.34,59.04-54.34,57.32,21.5,58.1,54.36c-.02,15-5.47,28.56-15.37,38.23Z"/><path class="cls-1" d="M16.69,782.87h156.45V207.66H16.69v575.21ZM51.51,242.48h86.83v505.56H51.51V242.48Z"/><path class="cls-1" d="M585.7,207.66c-72.55,0-116.97,25.05-142.7,48.6l-4.89-48.6h-177.01v575.19h173.35v-302.3c0-13.02,5.27-40.05,8.58-47.19,20.94-45.1,49.19-45.1,91.98-45.1,49.28,0,90.92,46.22,90.92,100.91v293.72h174.07v-324.99c0-171.94-111.09-250.24-214.3-250.24ZM765.19,748.06h-104.44v-258.91c0-73.58-57.58-135.72-125.73-135.72-43.73,0-93.27,0-123.57,65.28-6.25,13.49-11.82,45.81-11.82,61.85v267.51h-103.71V242.48h110.71l7.1,70.39h28.53l5.1-8.23c11.61-18.69,48.32-62.18,138.35-62.18s179.48,67.4,179.48,215.39v290.21h0Z"/></svg>