<?xml version="1.0" encoding="UTF-8"?><svg id="Camada_1" xmlns="http://www.w3.org/2000/svg" viewBox="0 0 733.33 533.33"><defs><style>.cls-1{fill:#333;fill-rule:evenodd;}</style></defs><path class="cls-1" d="M633.33,0c55.23,0,100,44.77,100,100v333.33c0,55.23-44.77,100-100,100H100c-55.23,0-100-44.77-100-100V100C0,44.77,44.77,0,100,0h533.33ZM608.43,66.67H124.91l221.11,174.56c12.11,9.56,29.2,9.56,41.31,0l221.11-174.56ZM66.67,105.63v327.71c0,18.41,14.92,33.33,33.33,33.33h533.33c18.41,0,33.33-14.92,33.33-33.33V105.63l-238.04,187.92c-36.33,28.68-87.6,28.68-123.93,0L66.67,105.63Z"/></svg>