<?xml version="1.0" encoding="UTF-8"?><svg id="Camada_1" xmlns="http://www.w3.org/2000/svg" viewBox="0 0 800 800"><defs><style>.cls-1{fill:#fafafa;fill-rule:evenodd;}</style></defs><g id="Page-1"><g id="Dribbble-Light-Preview"><g id="icons"><path id="python-_127_" class="cls-1" d="M509.76,738.32c-19.28,0-34.88-15.68-34.88-35.06s15.6-35.02,34.88-35.02,34.88,15.62,34.88,35.02-15.6,35.06-34.88,35.06M402.88,800c203.12,0,190.44-88.54,190.44-88.54l-.24-91.72h-193.8v-27.54h270.76s129.96,14.82,129.96-191.15-113.4-198.73-113.4-198.73h-67.72v95.62s3.64,113.98-111.6,113.98h-192.24s-108-1.72-108,104.96v176.35s-16.4,106.76,195.84,106.76M290.28,61.68c19.28,0,34.84,15.68,34.84,35.06s-15.56,35.02-34.84,35.02-34.88-15.62-34.88-35.02,15.6-35.06,34.88-35.06M397.12,0c-203.08,0-190.4,88.54-190.4,88.54l.24,91.72h193.8v27.54H129.96S0,192.97,0,398.95s113.44,198.73,113.44,198.73h67.68v-95.62s-3.64-113.98,111.64-113.98h192.2s108,1.72,108-104.96V106.76S609.36,0,397.12,0"/></g></g></g></svg>